
<svg width="98px" height="1091px" viewBox="0 0 98 1091" version="1.1" xmlns="http://www.w3.org/2000/svg" xmlns:xlink="http://www.w3.org/1999/xlink">
    <!-- Generator: Sketch 45.2 (43514) - http://www.bohemiancoding.com/sketch -->
    <desc>Created with Sketch.</desc>
    <defs></defs>
    <g id="Page-1" stroke="none" stroke-width="1" fill="none" fill-rule="evenodd">
        <g id="smart-schematic" transform="translate(1.000000, 1.000000)">
            <g id="ESP" transform="translate(0.869904, 0.779035)">
                <g id="casing" stroke="#425866" stroke-width="2">
                    <path d="M94.7269849,1064.51348 L94.7269849,22.5166413 C94.7269849,35.5937015 73.517613,46.1983875 47.3634925,46.1983875 C21.2093719,46.1983875 0,35.5937015 0,22.5166413 L0,1064.51348 C0,1051.43168 21.2093719,1040.83173 47.3634925,1040.83173 C73.517613,1040.83173 94.7269849,1051.43168 94.7269849,1064.51348" id="fill"></path>
                    <path d="M94.7269849,23.7007286 C94.7269849,10.6236683 73.517613,0.0189823371 47.3634925,0.0189823371 C21.2093719,0.0189823371 0,10.6236683 0,23.7007286" id="Stroke-9"></path>
                    <path d="M94.7269849,1064.01348 C94.7269849,1077.09527 73.517613,1087.69522 47.3634925,1087.69522 C21.2093719,1087.69522 0,1077.09527 0,1064.01348" id="Stroke-11"></path>
                </g>
                <g id="drain-valve" transform="translate(23.577893, 14.117987)">
                    <path d="M42.7309961,9.58274189 C42.7309961,4.35381232 34.2481946,0.110043394 23.7855991,0.110043394 C13.3230037,0.110043394 4.84020216,4.35381232 4.84020216,9.58274189 L4.84020216,73.5234567 C4.84020216,68.2945272 13.3230037,64.0507582 23.7855991,64.0507582 C34.2481946,64.0507582 42.7309961,68.2945272 42.7309961,73.5234567 L42.7309961,9.58274189 Z" id="Fill-13" fill="#FEFEFE"></path>
                    <path d="M42.7309961,9.58274189 C42.7309961,4.35381232 34.2481946,0.110043394 23.7855991,0.110043394 C13.3230037,0.110043394 4.84020216,4.35381232 4.84020216,9.58274189 L4.84020216,73.5234567 C4.84020216,68.2945272 13.3230037,64.0507582 23.7855991,64.0507582 C34.2481946,64.0507582 42.7309961,68.2945272 42.7309961,73.5234567 L42.7309961,9.58274189 Z" id="Stroke-15" stroke="#231F20"></path>
                    <path d="M0.103852911,120.886949 C0.103852911,114.346051 10.7038025,109.046076 23.7855991,109.046076 C36.8673958,109.046076 47.4673454,114.346051 47.4673454,120.886949 L47.4673454,73.5234567 C47.4673454,66.9825584 36.8673958,61.6825836 23.7855991,61.6825836 C10.7038025,61.6825836 0.103852911,66.9825584 0.103852911,73.5234567 L0.103852911,120.886949 Z" id="Fill-17" fill="#FEFEFE"></path>
                    <path d="M0.103852911,120.886949 C0.103852911,114.346051 10.7038025,109.046076 23.7855991,109.046076 C36.8673958,109.046076 47.4673454,114.346051 47.4673454,120.886949 L47.4673454,73.5234567 C47.4673454,66.9825584 36.8673958,61.6825836 23.7855991,61.6825836 C10.7038025,61.6825836 0.103852911,66.9825584 0.103852911,73.5234567 L0.103852911,120.886949 Z" id="Stroke-19" stroke="#231F20"></path>
                    <path d="M47.4673454,120.886949 C47.4673454,127.427848 36.8673958,132.727822 23.7855991,132.727822 C10.7038025,132.727822 0.103852911,127.427848 0.103852911,120.886949 C0.103852911,114.346051 10.7038025,109.046076 23.7855991,109.046076 C36.8673958,109.046076 47.4673454,114.346051 47.4673454,120.886949" id="Fill-21" fill="#FEFEFE"></path>
                    <path d="M47.4673454,120.886949 C47.4673454,127.427848 36.8673958,132.727822 23.7855991,132.727822 C10.7038025,132.727822 0.103852911,127.427848 0.103852911,120.886949 C0.103852911,114.346051 10.7038025,109.046076 23.7855991,109.046076 C36.8673958,109.046076 47.4673454,114.346051 47.4673454,120.886949 Z" id="Stroke-23" stroke="#231F20"></path>
                </g>
                <g id="check-valve" transform="translate(27.872544, 125.161520)">
                    <path d="M38.4363458,9.84341561 C38.4363458,4.61448604 29.9535443,0.370717113 19.4909489,0.370717113 C9.02835336,0.370717113 0.545551862,4.61448604 0.545551862,9.84341561 L0.545551862,57.2069081 C0.545551862,51.9779785 9.02835336,47.7342096 19.4909489,47.7342096 C29.9535443,47.7342096 38.4363458,51.9779785 38.4363458,57.2069081 L38.4363458,9.84341561 Z" id="Fill-25" fill="#FEFEFE"></path>
                    <path d="M38.4363458,9.84341561 C38.4363458,4.61448604 29.9535443,0.370717113 19.4909489,0.370717113 C9.02835336,0.370717113 0.545551862,4.61448604 0.545551862,9.84341561 L0.545551862,57.2069081 C0.545551862,51.9779785 9.02835336,47.7342096 19.4909489,47.7342096 C29.9535443,47.7342096 38.4363458,51.9779785 38.4363458,57.2069081 L38.4363458,9.84341561 Z" id="Stroke-27" stroke="#231F20"></path>
                </g>
                <g id="cable-round" transform="translate(23.577893, 169.987097)">
                    <path d="M0.103852911,59.7448238 C0.103852911,53.2039255 10.7038025,47.9039507 23.7855991,47.9039507 C36.8673958,47.9039507 47.4673454,53.2039255 47.4673454,59.7448238 L47.4673454,12.3813314 C47.4673454,5.84043307 36.8673958,0.540458261 23.7855991,0.540458261 C10.7038025,0.540458261 0.103852911,5.84043307 0.103852911,12.3813314 L0.103852911,59.7448238 Z" id="Fill-29" fill="#FEFEFE"></path>
                    <path d="M0.103852911,59.7448238 C0.103852911,53.2039255 10.7038025,47.9039507 23.7855991,47.9039507 C36.8673958,47.9039507 47.4673454,53.2039255 47.4673454,59.7448238 L47.4673454,12.3813314 C47.4673454,5.84043307 36.8673958,0.540458261 23.7855991,0.540458261 C10.7038025,0.540458261 0.103852911,5.84043307 0.103852911,12.3813314 L0.103852911,59.7448238 Z" id="Stroke-31" stroke="#231F20"></path>
                    <path d="M47.4673454,59.7448238 C47.4673454,66.2857222 36.8673958,71.585697 23.7855991,71.585697 C10.7038025,71.585697 0.103852911,66.2857222 0.103852911,59.7448238 C0.103852911,53.2039255 10.7038025,47.9039507 23.7855991,47.9039507 C36.8673958,47.9039507 47.4673454,53.2039255 47.4673454,59.7448238" id="Fill-33" fill="#FEFEFE"></path>
                    <path d="M47.4673454,59.7448238 C47.4673454,66.2857222 36.8673958,71.585697 23.7855991,71.585697 C10.7038025,71.585697 0.103852911,66.2857222 0.103852911,59.7448238 C0.103852911,53.2039255 10.7038025,47.9039507 23.7855991,47.9039507 C36.8673958,47.9039507 47.4673454,53.2039255 47.4673454,59.7448238 Z" id="Stroke-35" stroke="#231F20"></path>
                </g>
                <g id="splice" transform="translate(27.872544, 220.052831)">
                    <path d="M38.4363458,9.67908975 C38.4363458,4.45016018 29.9535443,0.206391253 19.4909489,0.206391253 C9.02835336,0.206391253 0.545551862,4.45016018 0.545551862,9.67908975 L0.545551862,104.406075 C0.545551862,99.1771451 9.02835336,94.9333762 19.4909489,94.9333762 C29.9535443,94.9333762 38.4363458,99.1771451 38.4363458,104.406075 L38.4363458,9.67908975 Z" id="Fill-37" fill="#FEFEFE"></path>
                    <path d="M38.4363458,9.67908975 C38.4363458,4.45016018 29.9535443,0.206391253 19.4909489,0.206391253 C9.02835336,0.206391253 0.545551862,4.45016018 0.545551862,9.67908975 L0.545551862,104.406075 C0.545551862,99.1771451 9.02835336,94.9333762 19.4909489,94.9333762 C29.9535443,94.9333762 38.4363458,99.1771451 38.4363458,104.406075 L38.4363458,9.67908975 Z" id="Stroke-39" stroke="#231F20"></path>
                </g>
                <g id="motor-flat" transform="translate(23.577893, 312.613932)">
                    <path d="M0.103852911,59.2084663 C0.103852911,52.667568 10.7038025,47.3675932 23.7855991,47.3675932 C36.8673958,47.3675932 47.4673454,52.667568 47.4673454,59.2084663 L47.4673454,11.8449738 C47.4673454,5.30407553 36.8673958,0.00410071797 23.7855991,0.00410071797 C10.7038025,0.00410071797 0.103852911,5.30407553 0.103852911,11.8449738 L0.103852911,59.2084663 Z" id="Fill-41" fill="#FEFEFE"></path>
                    <path d="M0.103852911,59.2084663 C0.103852911,52.667568 10.7038025,47.3675932 23.7855991,47.3675932 C36.8673958,47.3675932 47.4673454,52.667568 47.4673454,59.2084663 L47.4673454,11.8449738 C47.4673454,5.30407553 36.8673958,0.00410071797 23.7855991,0.00410071797 C10.7038025,0.00410071797 0.103852911,5.30407553 0.103852911,11.8449738 L0.103852911,59.2084663 Z" id="Stroke-43" stroke="#231F20"></path>
                </g>
                <g id="pump" transform="translate(9.315210, 352.711633)">
                    <path d="M0.157488665,189.619338 C0.157488665,179.156743 17.1230917,170.673941 38.0482826,170.673941 C58.9734736,170.673941 75.9390766,179.156743 75.9390766,189.619338 L75.9390766,19.1107654 C75.9390766,8.64816992 58.9734736,0.165368416 38.0482826,0.165368416 C17.1230917,0.165368416 0.157488665,8.64816992 0.157488665,19.1107654 L0.157488665,189.619338 Z" id="Fill-45" fill="#FEFEFE"></path>
                    <path d="M0.157488665,189.619338 C0.157488665,179.156743 17.1230917,170.673941 38.0482826,170.673941 C58.9734736,170.673941 75.9390766,179.156743 75.9390766,189.619338 L75.9390766,19.1107654 C75.9390766,8.64816992 58.9734736,0.165368416 38.0482826,0.165368416 C17.1230917,0.165368416 0.157488665,8.64816992 0.157488665,19.1107654 L0.157488665,189.619338 Z" id="Stroke-47" stroke="#231F20"></path>
                    <path d="M75.9390766,189.619338 C75.9390766,200.081934 58.9734736,208.564735 38.0482826,208.564735 C17.1230917,208.564735 0.157488665,200.081934 0.157488665,189.619338 C0.157488665,179.156743 17.1230917,170.673941 38.0482826,170.673941 C58.9734736,170.673941 75.9390766,179.156743 75.9390766,189.619338" id="Fill-49" fill="#FEFEFE"></path>
                    <path d="M75.9390766,189.619338 C75.9390766,200.081934 58.9734736,208.564735 38.0482826,208.564735 C17.1230917,208.564735 0.157488665,200.081934 0.157488665,189.619338 C0.157488665,179.156743 17.1230917,170.673941 38.0482826,170.673941 C58.9734736,170.673941 75.9390766,179.156743 75.9390766,189.619338 Z" id="Stroke-51" stroke="#231F20"></path>
                </g>
                <g id="intake" transform="translate(18.337736, 531.649645)">
                    <path d="M5.34401031,59.228906 C5.34401031,52.6880077 15.9439599,47.3880328 29.0257565,47.3880328 C42.1075532,47.3880328 52.7075028,52.6880077 52.7075028,59.228906 L52.7075028,11.8654135 C52.7075028,5.32451518 42.1075532,0.0245403723 29.0257565,0.0245403723 C15.9439599,0.0245403723 5.34401031,5.32451518 5.34401031,11.8654135 L5.34401031,59.228906 Z" id="Fill-53" fill="#FEFEFE"></path>
                    <path d="M5.34401031,59.228906 C5.34401031,52.6880077 15.9439599,47.3880328 29.0257565,47.3880328 C42.1075532,47.3880328 52.7075028,52.6880077 52.7075028,59.228906 L52.7075028,11.8654135 C52.7075028,5.32451518 42.1075532,0.0245403723 29.0257565,0.0245403723 C15.9439599,0.0245403723 5.34401031,5.32451518 5.34401031,11.8654135 L5.34401031,59.228906 Z" id="Stroke-55" stroke="#231F20"></path>
                    <path d="M57.443852,68.7016045 C57.443852,60.8534738 44.7172816,54.4925567 29.0257565,54.4925567 C13.3342315,54.4925567 0.607661066,60.8534738 0.607661066,68.7016045 L0.607661066,59.228906 C0.607661066,51.3807753 13.3342315,45.0198582 29.0257565,45.0198582 C44.7172816,45.0198582 57.443852,51.3807753 57.443852,59.228906 L57.443852,68.7016045 Z" id="Fill-57" fill="#FEFEFE"></path>
                    <path d="M57.443852,68.7016045 C57.443852,60.8534738 44.7172816,54.4925567 29.0257565,54.4925567 C13.3342315,54.4925567 0.607661066,60.8534738 0.607661066,68.7016045 L0.607661066,59.228906 C0.607661066,51.3807753 13.3342315,45.0198582 29.0257565,45.0198582 C44.7172816,45.0198582 57.443852,51.3807753 57.443852,59.228906 L57.443852,68.7016045 Z" id="Stroke-59" stroke="#231F20"></path>
                    <path d="M57.443852,68.7016045 C57.443852,76.5497352 44.7172816,82.9106522 29.0257565,82.9106522 C13.3342315,82.9106522 0.607661066,76.5497352 0.607661066,68.7016045 C0.607661066,60.8534738 13.3342315,54.4925567 29.0257565,54.4925567 C44.7172816,54.4925567 57.443852,60.8534738 57.443852,68.7016045" id="Fill-61" fill="#FEFEFE"></path>
                    <path d="M57.443852,68.7016045 C57.443852,76.5497352 44.7172816,82.9106522 29.0257565,82.9106522 C13.3342315,82.9106522 0.607661066,76.5497352 0.607661066,68.7016045 C0.607661066,60.8534738 13.3342315,54.4925567 29.0257565,54.4925567 C44.7172816,54.4925567 57.443852,60.8534738 57.443852,68.7016045 Z" id="Stroke-63" stroke="#231F20"></path>
                </g>
                <g id="seal-section" transform="translate(18.337736, 587.679971)">
                    <path d="M5.34401031,22.1439771 C5.34401031,15.6030788 15.9439599,10.303104 29.0257565,10.303104 C42.1075532,10.303104 52.7075028,15.6030788 52.7075028,22.1439771 L52.7075028,12.6712786 C52.7075028,6.13038033 42.1075532,0.830405519 29.0257565,0.830405519 C15.9439599,0.830405519 5.34401031,6.13038033 5.34401031,12.6712786 L5.34401031,22.1439771 Z" id="Fill-65" fill="#FEFEFE"></path>
                    <path d="M5.34401031,22.1439771 C5.34401031,15.6030788 15.9439599,10.303104 29.0257565,10.303104 C42.1075532,10.303104 52.7075028,15.6030788 52.7075028,22.1439771 L52.7075028,12.6712786 C52.7075028,6.13038033 42.1075532,0.830405519 29.0257565,0.830405519 C15.9439599,0.830405519 5.34401031,6.13038033 5.34401031,12.6712786 L5.34401031,22.1439771 Z" id="Stroke-67" stroke="#231F20"></path>
                    <path d="M57.443852,31.6166756 C57.443852,23.7685449 44.7172816,17.4076279 29.0257565,17.4076279 C13.3342315,17.4076279 0.607661066,23.7685449 0.607661066,31.6166756 L0.607661066,22.1439771 C0.607661066,14.2958464 13.3342315,7.93492939 29.0257565,7.93492939 C44.7172816,7.93492939 57.443852,14.2958464 57.443852,22.1439771 L57.443852,31.6166756 Z" id="Fill-69" fill="#FEFEFE"></path>
                    <path d="M57.443852,31.6166756 C57.443852,23.7685449 44.7172816,17.4076279 29.0257565,17.4076279 C13.3342315,17.4076279 0.607661066,23.7685449 0.607661066,31.6166756 L0.607661066,22.1439771 C0.607661066,14.2958464 13.3342315,7.93492939 29.0257565,7.93492939 C44.7172816,7.93492939 57.443852,14.2958464 57.443852,22.1439771 L57.443852,31.6166756 Z" id="Stroke-71" stroke="#231F20"></path>
                    <path d="M57.443852,31.6166756 C57.443852,39.4648063 44.7172816,45.8257234 29.0257565,45.8257234 C13.3342315,45.8257234 0.607661066,39.4648063 0.607661066,31.6166756 C0.607661066,23.7685449 13.3342315,17.4076279 29.0257565,17.4076279 C44.7172816,17.4076279 57.443852,23.7685449 57.443852,31.6166756" id="Fill-73" fill="#FEFEFE"></path>
                    <path d="M57.443852,31.6166756 C57.443852,39.4648063 44.7172816,45.8257234 29.0257565,45.8257234 C13.3342315,45.8257234 0.607661066,39.4648063 0.607661066,31.6166756 C0.607661066,23.7685449 13.3342315,17.4076279 29.0257565,17.4076279 C44.7172816,17.4076279 57.443852,23.7685449 57.443852,31.6166756 Z" id="Stroke-75" stroke="#231F20"></path>
                    <path d="M5.34401031,41.0893741 C5.34401031,34.5484758 15.9439599,29.248501 29.0257565,29.248501 C42.1075532,29.248501 52.7075028,34.5484758 52.7075028,41.0893741 L52.7075028,31.6166756 C52.7075028,25.0757773 42.1075532,19.7758025 29.0257565,19.7758025 C15.9439599,19.7758025 5.34401031,25.0757773 5.34401031,31.6166756 L5.34401031,41.0893741 Z" id="Fill-77" fill="#FEFEFE"></path>
                    <path d="M5.34401031,41.0893741 C5.34401031,34.5484758 15.9439599,29.248501 29.0257565,29.248501 C42.1075532,29.248501 52.7075028,34.5484758 52.7075028,41.0893741 L52.7075028,31.6166756 C52.7075028,25.0757773 42.1075532,19.7758025 29.0257565,19.7758025 C15.9439599,19.7758025 5.34401031,25.0757773 5.34401031,31.6166756 L5.34401031,41.0893741 Z" id="Stroke-79" stroke="#231F20"></path>
                    <path d="M57.443852,123.975486 C57.443852,116.127355 44.7172816,109.766438 29.0257565,109.766438 C13.3342315,109.766438 0.607661066,116.127355 0.607661066,123.975486 L0.607661066,43.4575487 C0.607661066,35.609418 13.3342315,29.248501 29.0257565,29.248501 C44.7172816,29.248501 57.443852,35.609418 57.443852,43.4575487 L57.443852,123.975486 Z" id="Fill-81" fill="#FEFEFE"></path>
                    <path d="M57.443852,123.975486 C57.443852,116.127355 44.7172816,109.766438 29.0257565,109.766438 C13.3342315,109.766438 0.607661066,116.127355 0.607661066,123.975486 L0.607661066,43.4575487 C0.607661066,35.609418 13.3342315,29.248501 29.0257565,29.248501 C44.7172816,29.248501 57.443852,35.609418 57.443852,43.4575487 L57.443852,123.975486 Z" id="Stroke-83" stroke="#231F20"></path>
                    <path d="M57.443852,123.975486 C57.443852,131.823617 44.7172816,138.184534 29.0257565,138.184534 C13.3342315,138.184534 0.607661066,131.823617 0.607661066,123.975486 C0.607661066,116.127355 13.3342315,109.766438 29.0257565,109.766438 C44.7172816,109.766438 57.443852,116.127355 57.443852,123.975486" id="Fill-85" fill="#FEFEFE"></path>
                    <path d="M57.443852,123.975486 C57.443852,131.823617 44.7172816,138.184534 29.0257565,138.184534 C13.3342315,138.184534 0.607661066,131.823617 0.607661066,123.975486 C0.607661066,116.127355 13.3342315,109.766438 29.0257565,109.766438 C44.7172816,109.766438 57.443852,116.127355 57.443852,123.975486 Z" id="Stroke-87" stroke="#231F20"></path>
                </g>
                <g id="motor" transform="translate(23.577893, 703.818965)">
                    <path d="M37.9946469,30.9261943 C37.9946469,27.0044972 31.6337298,23.8216705 23.7855991,23.8216705 C15.9374684,23.8216705 9.5765514,27.0044972 9.5765514,30.9261943 L9.5765514,7.83649176 C9.5765514,3.91479459 15.9374684,0.731967894 23.7855991,0.731967894 C31.6337298,0.731967894 37.9946469,3.91479459 37.9946469,7.83649176 L37.9946469,30.9261943 Z" id="Fill-89" fill="#FEFEFE"></path>
                    <path d="M37.9946469,30.9261943 C37.9946469,27.0044972 31.6337298,23.8216705 23.7855991,23.8216705 C15.9374684,23.8216705 9.5765514,27.0044972 9.5765514,30.9261943 L9.5765514,7.83649176 C9.5765514,3.91479459 15.9374684,0.731967894 23.7855991,0.731967894 C31.6337298,0.731967894 37.9946469,3.91479459 37.9946469,7.83649176 L37.9946469,30.9261943 Z" id="Stroke-91" stroke="#231F20"></path>
                    <path d="M42.7309961,40.3988928 C42.7309961,35.1699633 34.2481946,30.9261943 23.7855991,30.9261943 C13.3230037,30.9261943 4.84020216,35.1699633 4.84020216,40.3988928 L4.84020216,30.9261943 C4.84020216,25.6972648 13.3230037,21.4534959 23.7855991,21.4534959 C34.2481946,21.4534959 42.7309961,25.6972648 42.7309961,30.9261943 L42.7309961,40.3988928 Z" id="Fill-93" fill="#FEFEFE"></path>
                    <path d="M42.7309961,40.3988928 C42.7309961,35.1699633 34.2481946,30.9261943 23.7855991,30.9261943 C13.3230037,30.9261943 4.84020216,35.1699633 4.84020216,40.3988928 L4.84020216,30.9261943 C4.84020216,25.6972648 13.3230037,21.4534959 23.7855991,21.4534959 C34.2481946,21.4534959 42.7309961,25.6972648 42.7309961,30.9261943 L42.7309961,40.3988928 Z" id="Stroke-95" stroke="#231F20"></path>
                    <path d="M42.7309961,40.3988928 C42.7309961,45.6278224 34.2481946,49.8715913 23.7855991,49.8715913 C13.3230037,49.8715913 4.84020216,45.6278224 4.84020216,40.3988928 C4.84020216,35.1699633 13.3230037,30.9261943 23.7855991,30.9261943 C34.2481946,30.9261943 42.7309961,35.1699633 42.7309961,40.3988928" id="Fill-97" fill="#FEFEFE"></path>
                    <path d="M42.7309961,40.3988928 C42.7309961,45.6278224 34.2481946,49.8715913 23.7855991,49.8715913 C13.3230037,49.8715913 4.84020216,45.6278224 4.84020216,40.3988928 C4.84020216,35.1699633 13.3230037,30.9261943 23.7855991,30.9261943 C34.2481946,30.9261943 42.7309961,35.1699633 42.7309961,40.3988928 Z" id="Stroke-99" stroke="#231F20"></path>
                    <path d="M37.9946469,63.4885954 C37.9946469,59.5668982 31.6337298,56.3840715 23.7855991,56.3840715 C15.9374684,56.3840715 9.5765514,59.5668982 9.5765514,63.4885954 L9.5765514,40.3988928 C9.5765514,36.4771957 15.9374684,33.294369 23.7855991,33.294369 C31.6337298,33.294369 37.9946469,36.4771957 37.9946469,40.3988928 L37.9946469,63.4885954 Z" id="Fill-101" fill="#FEFEFE"></path>
                    <path d="M37.9946469,63.4885954 C37.9946469,59.5668982 31.6337298,56.3840715 23.7855991,56.3840715 C15.9374684,56.3840715 9.5765514,59.5668982 9.5765514,63.4885954 L9.5765514,40.3988928 C9.5765514,36.4771957 15.9374684,33.294369 23.7855991,33.294369 C31.6337298,33.294369 37.9946469,36.4771957 37.9946469,40.3988928 L37.9946469,63.4885954 Z" id="Stroke-103" stroke="#231F20"></path>
                    <path d="M0.103852911,252.942565 C0.103852911,246.401667 10.7038025,241.101692 23.7855991,241.101692 C36.8673958,241.101692 47.4673454,246.401667 47.4673454,252.942565 L47.4673454,63.4885954 C47.4673454,56.9476971 36.8673958,51.6477223 23.7855991,51.6477223 C10.7038025,51.6477223 0.103852911,56.9476971 0.103852911,63.4885954 L0.103852911,252.942565 Z" id="Fill-105" fill="#FEFEFE"></path>
                    <path d="M0.103852911,252.942565 C0.103852911,246.401667 10.7038025,241.101692 23.7855991,241.101692 C36.8673958,241.101692 47.4673454,246.401667 47.4673454,252.942565 L47.4673454,63.4885954 C47.4673454,56.9476971 36.8673958,51.6477223 23.7855991,51.6477223 C10.7038025,51.6477223 0.103852911,56.9476971 0.103852911,63.4885954 L0.103852911,252.942565 Z" id="Stroke-107" stroke="#231F20"></path>
                    <path d="M47.4673454,252.942565 C47.4673454,259.483464 36.8673958,264.783438 23.7855991,264.783438 C10.7038025,264.783438 0.103852911,259.483464 0.103852911,252.942565 C0.103852911,246.401667 10.7038025,241.101692 23.7855991,241.101692 C36.8673958,241.101692 47.4673454,246.401667 47.4673454,252.942565" id="Fill-109" fill="#FEFEFE"></path>
                    <path d="M47.4673454,252.942565 C47.4673454,259.483464 36.8673958,264.783438 23.7855991,264.783438 C10.7038025,264.783438 0.103852911,259.483464 0.103852911,252.942565 C0.103852911,246.401667 10.7038025,241.101692 23.7855991,241.101692 C36.8673958,241.101692 47.4673454,246.401667 47.4673454,252.942565 Z" id="Stroke-111" stroke="#231F20"></path>
                    <path d="M42.7309961,262.415264 C42.7309961,257.186334 34.2481946,252.942565 23.7855991,252.942565 C13.3230037,252.942565 4.84020216,257.186334 4.84020216,262.415264 L4.84020216,252.942565 C4.84020216,247.713636 13.3230037,243.469867 23.7855991,243.469867 C34.2481946,243.469867 42.7309961,247.713636 42.7309961,252.942565 L42.7309961,262.415264 Z" id="Fill-113" fill="#FEFEFE"></path>
                    <path d="M42.7309961,262.415264 C42.7309961,257.186334 34.2481946,252.942565 23.7855991,252.942565 C13.3230037,252.942565 4.84020216,257.186334 4.84020216,262.415264 L4.84020216,252.942565 C4.84020216,247.713636 13.3230037,243.469867 23.7855991,243.469867 C34.2481946,243.469867 42.7309961,247.713636 42.7309961,252.942565 L42.7309961,262.415264 Z" id="Stroke-115" stroke="#231F20"></path>
                    <path d="M42.7309961,262.415264 C42.7309961,267.644193 34.2481946,271.887962 23.7855991,271.887962 C13.3230037,271.887962 4.84020216,267.644193 4.84020216,262.415264 C4.84020216,257.186334 13.3230037,252.942565 23.7855991,252.942565 C34.2481946,252.942565 42.7309961,257.186334 42.7309961,262.415264" id="Fill-117" fill="#FEFEFE"></path>
                    <path d="M42.7309961,262.415264 C42.7309961,267.644193 34.2481946,271.887962 23.7855991,271.887962 C13.3230037,271.887962 4.84020216,267.644193 4.84020216,262.415264 C4.84020216,257.186334 13.3230037,252.942565 23.7855991,252.942565 C34.2481946,252.942565 42.7309961,257.186334 42.7309961,262.415264 Z" id="Stroke-119" stroke="#231F20"></path>
                    <path d="M37.9946469,271.887962 C37.9946469,267.966265 31.6337298,264.783438 23.7855991,264.783438 C15.9374684,264.783438 9.5765514,267.966265 9.5765514,271.887962 L9.5765514,262.415264 C9.5765514,258.493567 15.9374684,255.31074 23.7855991,255.31074 C31.6337298,255.31074 37.9946469,258.493567 37.9946469,262.415264 L37.9946469,271.887962 Z" id="Fill-121" fill="#FEFEFE"></path>
                    <path d="M37.9946469,271.887962 C37.9946469,267.966265 31.6337298,264.783438 23.7855991,264.783438 C15.9374684,264.783438 9.5765514,267.966265 9.5765514,271.887962 L9.5765514,262.415264 C9.5765514,258.493567 15.9374684,255.31074 23.7855991,255.31074 C31.6337298,255.31074 37.9946469,258.493567 37.9946469,262.415264 L37.9946469,271.887962 Z" id="Stroke-123" stroke="#231F20"></path>
                    <path d="M37.9946469,271.887962 C37.9946469,275.809659 31.6337298,278.992486 23.7855991,278.992486 C15.9374684,278.992486 9.5765514,275.809659 9.5765514,271.887962 C9.5765514,267.966265 15.9374684,264.783438 23.7855991,264.783438 C31.6337298,264.783438 37.9946469,267.966265 37.9946469,271.887962" id="Fill-125" fill="#FEFEFE"></path>
                    <path d="M37.9946469,271.887962 C37.9946469,275.809659 31.6337298,278.992486 23.7855991,278.992486 C15.9374684,278.992486 9.5765514,275.809659 9.5765514,271.887962 C9.5765514,267.966265 15.9374684,264.783438 23.7855991,264.783438 C31.6337298,264.783438 37.9946469,267.966265 37.9946469,271.887962 Z" id="Stroke-127" stroke="#231F20"></path>
                </g>
            </g>
        </g>
    </g>
</svg>
