<?xml version="1.0" encoding="UTF-8"?>
<svg width="49px" height="281px" viewBox="0 0 49 281" version="1.1" xmlns="http://www.w3.org/2000/svg" xmlns:xlink="http://www.w3.org/1999/xlink">
    <!-- Generator: Sketch 45.2 (43514) - http://www.bohemiancoding.com/sketch -->
    <title>motor</title>
    <desc>Created with Sketch.</desc>
    <defs></defs>
    <g id="Page-1" stroke="none" stroke-width="1" fill="none" fill-rule="evenodd">
        <g id="esp" transform="translate(-24.000000, -704.000000)">
            <g id="Group" transform="translate(10.000000, 14.000000)">
                <g id="motor" transform="translate(14.447797, 690.598000)">
                    <path d="M37.9946469,30.9261943 C37.9946469,27.0044972 31.6337298,23.8216705 23.7855991,23.8216705 C15.9374684,23.8216705 9.5765514,27.0044972 9.5765514,30.9261943 L9.5765514,7.83649176 C9.5765514,3.91479459 15.9374684,0.731967894 23.7855991,0.731967894 C31.6337298,0.731967894 37.9946469,3.91479459 37.9946469,7.83649176 L37.9946469,30.9261943 Z" id="Fill-89" fill="#FEFEFE" fill-rule="nonzero"></path>
                    <path d="M37.9946469,30.9261943 C37.9946469,27.0044972 31.6337298,23.8216705 23.7855991,23.8216705 C15.9374684,23.8216705 9.5765514,27.0044972 9.5765514,30.9261943 L9.5765514,7.83649176 C9.5765514,3.91479459 15.9374684,0.731967894 23.7855991,0.731967894 C31.6337298,0.731967894 37.9946469,3.91479459 37.9946469,7.83649176 L37.9946469,30.9261943 Z" id="Stroke-91" stroke="#231F20"></path>
                    <path d="M42.7309961,40.3988928 C42.7309961,35.1699633 34.2481946,30.9261943 23.7855991,30.9261943 C13.3230037,30.9261943 4.84020216,35.1699633 4.84020216,40.3988928 L4.84020216,30.9261943 C4.84020216,25.6972648 13.3230037,21.4534959 23.7855991,21.4534959 C34.2481946,21.4534959 42.7309961,25.6972648 42.7309961,30.9261943 L42.7309961,40.3988928 Z" id="Fill-93" fill="#FEFEFE" fill-rule="nonzero"></path>
                    <path d="M42.7309961,40.3988928 C42.7309961,35.1699633 34.2481946,30.9261943 23.7855991,30.9261943 C13.3230037,30.9261943 4.84020216,35.1699633 4.84020216,40.3988928 L4.84020216,30.9261943 C4.84020216,25.6972648 13.3230037,21.4534959 23.7855991,21.4534959 C34.2481946,21.4534959 42.7309961,25.6972648 42.7309961,30.9261943 L42.7309961,40.3988928 Z" id="Stroke-95" stroke="#231F20"></path>
                    <path d="M42.7309961,40.3988928 C42.7309961,45.6278224 34.2481946,49.8715913 23.7855991,49.8715913 C13.3230037,49.8715913 4.84020216,45.6278224 4.84020216,40.3988928 C4.84020216,35.1699633 13.3230037,30.9261943 23.7855991,30.9261943 C34.2481946,30.9261943 42.7309961,35.1699633 42.7309961,40.3988928" id="Fill-97" fill="#FEFEFE" fill-rule="nonzero"></path>
                    <path d="M42.7309961,40.3988928 C42.7309961,45.6278224 34.2481946,49.8715913 23.7855991,49.8715913 C13.3230037,49.8715913 4.84020216,45.6278224 4.84020216,40.3988928 C4.84020216,35.1699633 13.3230037,30.9261943 23.7855991,30.9261943 C34.2481946,30.9261943 42.7309961,35.1699633 42.7309961,40.3988928 Z" id="Stroke-99" stroke="#231F20"></path>
                    <path d="M37.9946469,63.4885954 C37.9946469,59.5668982 31.6337298,56.3840715 23.7855991,56.3840715 C15.9374684,56.3840715 9.5765514,59.5668982 9.5765514,63.4885954 L9.5765514,40.3988928 C9.5765514,36.4771957 15.9374684,33.294369 23.7855991,33.294369 C31.6337298,33.294369 37.9946469,36.4771957 37.9946469,40.3988928 L37.9946469,63.4885954 Z" id="Fill-101" fill="#FEFEFE" fill-rule="nonzero"></path>
                    <path d="M37.9946469,63.4885954 C37.9946469,59.5668982 31.6337298,56.3840715 23.7855991,56.3840715 C15.9374684,56.3840715 9.5765514,59.5668982 9.5765514,63.4885954 L9.5765514,40.3988928 C9.5765514,36.4771957 15.9374684,33.294369 23.7855991,33.294369 C31.6337298,33.294369 37.9946469,36.4771957 37.9946469,40.3988928 L37.9946469,63.4885954 Z" id="Stroke-103" stroke="#231F20"></path>
                    <path d="M0.103852911,252.942565 C0.103852911,246.401667 10.7038025,241.101692 23.7855991,241.101692 C36.8673958,241.101692 47.4673454,246.401667 47.4673454,252.942565 L47.4673454,63.4885954 C47.4673454,56.9476971 36.8673958,51.6477223 23.7855991,51.6477223 C10.7038025,51.6477223 0.103852911,56.9476971 0.103852911,63.4885954 L0.103852911,252.942565 Z" id="Fill-105" fill="#FEFEFE" fill-rule="nonzero"></path>
                    <path d="M0.103852911,252.942565 C0.103852911,246.401667 10.7038025,241.101692 23.7855991,241.101692 C36.8673958,241.101692 47.4673454,246.401667 47.4673454,252.942565 L47.4673454,63.4885954 C47.4673454,56.9476971 36.8673958,51.6477223 23.7855991,51.6477223 C10.7038025,51.6477223 0.103852911,56.9476971 0.103852911,63.4885954 L0.103852911,252.942565 Z" id="Stroke-107" stroke="#231F20"></path>
                    <path d="M47.4673454,252.942565 C47.4673454,259.483464 36.8673958,264.783438 23.7855991,264.783438 C10.7038025,264.783438 0.103852911,259.483464 0.103852911,252.942565 C0.103852911,246.401667 10.7038025,241.101692 23.7855991,241.101692 C36.8673958,241.101692 47.4673454,246.401667 47.4673454,252.942565" id="Fill-109" fill="#FEFEFE" fill-rule="nonzero"></path>
                    <path d="M47.4673454,252.942565 C47.4673454,259.483464 36.8673958,264.783438 23.7855991,264.783438 C10.7038025,264.783438 0.103852911,259.483464 0.103852911,252.942565 C0.103852911,246.401667 10.7038025,241.101692 23.7855991,241.101692 C36.8673958,241.101692 47.4673454,246.401667 47.4673454,252.942565 Z" id="Stroke-111" stroke="#231F20"></path>
                    <path d="M42.7309961,262.415264 C42.7309961,257.186334 34.2481946,252.942565 23.7855991,252.942565 C13.3230037,252.942565 4.84020216,257.186334 4.84020216,262.415264 L4.84020216,252.942565 C4.84020216,247.713636 13.3230037,243.469867 23.7855991,243.469867 C34.2481946,243.469867 42.7309961,247.713636 42.7309961,252.942565 L42.7309961,262.415264 Z" id="Fill-113" fill="#FEFEFE" fill-rule="nonzero"></path>
                    <path d="M42.7309961,262.415264 C42.7309961,257.186334 34.2481946,252.942565 23.7855991,252.942565 C13.3230037,252.942565 4.84020216,257.186334 4.84020216,262.415264 L4.84020216,252.942565 C4.84020216,247.713636 13.3230037,243.469867 23.7855991,243.469867 C34.2481946,243.469867 42.7309961,247.713636 42.7309961,252.942565 L42.7309961,262.415264 Z" id="Stroke-115" stroke="#231F20"></path>
                    <path d="M42.7309961,262.415264 C42.7309961,267.644193 34.2481946,271.887962 23.7855991,271.887962 C13.3230037,271.887962 4.84020216,267.644193 4.84020216,262.415264 C4.84020216,257.186334 13.3230037,252.942565 23.7855991,252.942565 C34.2481946,252.942565 42.7309961,257.186334 42.7309961,262.415264" id="Fill-117" fill="#FEFEFE" fill-rule="nonzero"></path>
                    <path d="M42.7309961,262.415264 C42.7309961,267.644193 34.2481946,271.887962 23.7855991,271.887962 C13.3230037,271.887962 4.84020216,267.644193 4.84020216,262.415264 C4.84020216,257.186334 13.3230037,252.942565 23.7855991,252.942565 C34.2481946,252.942565 42.7309961,257.186334 42.7309961,262.415264 Z" id="Stroke-119" stroke="#231F20"></path>
                    <path d="M37.9946469,271.887962 C37.9946469,267.966265 31.6337298,264.783438 23.7855991,264.783438 C15.9374684,264.783438 9.5765514,267.966265 9.5765514,271.887962 L9.5765514,262.415264 C9.5765514,258.493567 15.9374684,255.31074 23.7855991,255.31074 C31.6337298,255.31074 37.9946469,258.493567 37.9946469,262.415264 L37.9946469,271.887962 Z" id="Fill-121" fill="#FEFEFE" fill-rule="nonzero"></path>
                    <path d="M37.9946469,271.887962 C37.9946469,267.966265 31.6337298,264.783438 23.7855991,264.783438 C15.9374684,264.783438 9.5765514,267.966265 9.5765514,271.887962 L9.5765514,262.415264 C9.5765514,258.493567 15.9374684,255.31074 23.7855991,255.31074 C31.6337298,255.31074 37.9946469,258.493567 37.9946469,262.415264 L37.9946469,271.887962 Z" id="Stroke-123" stroke="#231F20"></path>
                    <path d="M37.9946469,271.887962 C37.9946469,275.809659 31.6337298,278.992486 23.7855991,278.992486 C15.9374684,278.992486 9.5765514,275.809659 9.5765514,271.887962 C9.5765514,267.966265 15.9374684,264.783438 23.7855991,264.783438 C31.6337298,264.783438 37.9946469,267.966265 37.9946469,271.887962" id="Fill-125" fill="#FEFEFE" fill-rule="nonzero"></path>
                    <path d="M37.9946469,271.887962 C37.9946469,275.809659 31.6337298,278.992486 23.7855991,278.992486 C15.9374684,278.992486 9.5765514,275.809659 9.5765514,271.887962 C9.5765514,267.966265 15.9374684,264.783438 23.7855991,264.783438 C31.6337298,264.783438 37.9946469,267.966265 37.9946469,271.887962 Z" id="Stroke-127" stroke="#231F20"></path>
                </g>
            </g>
        </g>
    </g>
</svg>